<?xml version="1.0" encoding="utf-8"?>
<!-- Generator: Adobe Illustrator 19.2.1, SVG Export Plug-In . SVG Version: 6.00 Build 0)  -->
<svg version="1.1" id="Capa_1" xmlns="http://www.w3.org/2000/svg" xmlns:xlink="http://www.w3.org/1999/xlink" x="0px" y="0px"
	 viewBox="0 0 612 792" style="enable-background:new 0 0 612 792;" xml:space="preserve">
<style type="text/css">
	.st0{fill:#00CCCC;}
</style>
<g>
	<path class="st0" d="M369.3,319.1c-9.8,0.4-18.8,0.7-27.7,1.3c-6.9,0.4-9.8,3.2-10.4,10.2c-0.6,7.5-0.5,15-0.9,22.4
		c-0.2,3.2,1.4,4,4.2,4c10-0.1,20,0.1,30-0.1c4.1-0.1,5.2,1.6,4.8,5.4c-1.4,12-2.6,24.1-4.2,36.1c-0.2,1.1-2.6,2.8-4,2.9
		c-8.3,0.3-16.7,0.4-25,0c-4.5-0.2-6,1-5.9,5.7c0.2,37.7,0,75.3,0.2,113c0,5-1.2,6.6-6.3,6.4c-13.3-0.4-26.7-0.3-40,0
		c-5,0.1-6.6-1.2-6.5-6.4c0.2-37.5,0-75,0.2-112.5c0-5.2-1.4-6.7-6.4-6.3c-5.1,0.4-10.3,0-15.5,0.1c-3.1,0.1-4.1-1.2-4.1-4.1
		c0.1-12,0.1-24,0-36c0-3.3,1.6-4.4,4.6-4.4c5.5,0.1,11-0.2,16.5,0.1c3.7,0.2,4.9-1.1,4.9-4.8c0.1-11,0.3-22,0.9-32.9
		c1.4-23.2,17-40.4,40.1-42.4c15.7-1.4,31.6-0.9,47.4-1.1c1.1,0,3.1,1.7,3.1,2.6C369.4,291.8,369.3,305.2,369.3,319.1z"/>
</g>
</svg>
