<?xml version="1.0" encoding="utf-8"?>
<!-- Generator: Adobe Illustrator 19.2.1, SVG Export Plug-In . SVG Version: 6.00 Build 0)  -->
<svg version="1.1" id="Capa_1" xmlns="http://www.w3.org/2000/svg" xmlns:xlink="http://www.w3.org/1999/xlink" x="0px" y="0px"
	 viewBox="0 0 612 792" style="enable-background:new 0 0 612 792;" xml:space="preserve">
<style type="text/css">
	.st0{fill:#00CCCC;}
</style>
<g>
	<path class="st0" d="M241.9,414.7c-1-7.9-1.9-15.3-2.8-22.5c-6.5-1.5-13.8-2.6-20.7-4.9c-38.5-13.2-54.9-60.8-28.8-92.8
		c13.1-16.1,30.2-25.4,50.6-28.5c5.1-0.8,10.3-0.9,15.4-1c23.7-0.1,47.3,0,71-0.1c3.8,0,7.1,0.7,8.4,4.7c1.2,3.8-1.1,6.2-4.1,8.3
		c-2.9,2-5.7,4.1-8.5,6.1c-4.7,3.3-8.8,7.8-14.6,6.4c3.1,8.5,7.2,16.6,9.1,25.2c5,23.2-3.1,42.2-20.9,57.4
		c-3.7,3.1-7.5,6.1-10.9,9.5c-5,5.2-5.3,9.7-0.4,14.9c5.6,5.9,11.7,11.4,18.2,16.3c20.9,15.6,29.2,36.4,25.3,61.7
		c-3.3,21-17,34.5-35.3,43.7c-19.2,9.8-39.9,11.4-60.9,9.5c-17.4-1.5-34.2-5.6-49.2-15.1c-24.7-15.5-30.1-41.2-12.9-64.7
		c5.3-7.2,12.4-13.6,19.7-18.8c14.2-10,30.7-14.2,48-15.2C239.3,414.8,240.9,414.7,241.9,414.7z M246.1,504.1
		c13.9-0.2,25.5-1.4,35.9-7.4c13.4-7.7,19-27.4,10.8-39c-6.7-9.4-16.1-17.1-26.6-20.2c-20.8-6.2-40.7-2.2-56.9,13.3
		c-10.2,9.7-11.2,24.1-2.7,35.3c3.1,4.1,7.3,7.8,11.7,10.7C227.2,502.6,237.5,504.4,246.1,504.1z M279.2,339.1
		c-0.4-0.1-0.8-0.2-1.2-0.4c0-18.6-9.6-37.4-23.3-45.6c-15-8.9-30-3.5-35.4,13.1c-3.9,12.1-2.5,24,2.1,35.6
		c4.6,11.4,11.5,21.1,23,26.5c11.5,5.5,23.1,1.9,28.7-9.6C276.1,352.7,277.2,345.7,279.2,339.1z"/>
	<path class="st0" d="M403.9,372c14.1,0,27.2,0,40.4,0c8.2,0,9.8,1.7,9.9,10c0,15.3,0,15.3-15.4,15.3c-11.3,0-22.6,0-34.4,0
		c-0.1,2.1-0.3,3.9-0.4,5.6c0,12,0,24,0,36c0,6.8-2.2,9-9,9c-2.7,0-5.3,0-8,0c-6.2-0.1-8.3-2.2-8.3-8.5c-0.1-12,0-24,0-36
		c0-1.8,0-3.6,0-5.9c-2.3-0.1-4.1-0.3-5.9-0.3c-12.3,0-24.7,0-37,0c-5.4,0-7.5-2.2-7.7-7.6c-0.1-3.2-0.1-6.3,0-9.5
		c0.1-5.8,2.4-8.1,8.3-8.2c12-0.1,24,0,36,0c1.8,0,3.6,0,6.2,0c0-4.3,0-8.2,0-12.2c0-10-0.1-20,0-30c0.1-6,2.2-8,8.2-8.1
		c3-0.1,6-0.1,9,0c5.9,0.1,8.1,2.3,8.2,8.2c0.1,12,0,24,0,36C403.9,367.8,403.9,369.6,403.9,372z"/>
</g>
</svg>
