<?xml version="1.0" encoding="utf-8"?>
<!-- Generator: Adobe Illustrator 19.2.1, SVG Export Plug-In . SVG Version: 6.00 Build 0)  -->
<svg version="1.1" id="Capa_1" xmlns="http://www.w3.org/2000/svg" xmlns:xlink="http://www.w3.org/1999/xlink" x="0px" y="0px"
	 viewBox="0 0 612 792" style="enable-background:new 0 0 612 792;" xml:space="preserve">
<style type="text/css">
	.st0{fill:#00CCCC;}
</style>
<g>
	<path class="st0" d="M195.5,442.7c8.9-0.4,16.8-0.8,24.6-1.2c0.2-0.5,0.3-1,0.5-1.5c-28.7-9.4-44.8-28.4-47.3-59.2
		c9.2,2.4,17.4,4.5,25.6,6.6c0.3-0.5,0.7-1,1-1.6c-18.5-14.5-27.5-33.2-25.6-56.6c0.7-8.3,2.9-16.2,9.1-24.3c0.8,1.4,1.5,3,2.6,4.2
		c31.3,34.9,70.2,54.9,117,59.3c5.7,0.5,6,0.2,5.4-5.5c-2.8-27.1,9.8-51.2,33.1-63.1c22.9-11.7,49.9-7.9,69.7,9.9
		c2.6,2.3,5.1,2.9,8.2,1.8c10.8-3.8,21.6-7.6,33.1-11.7c-4.8,12.7-12.8,22.7-23.8,30.9c10.5-0.2,20.2-3.7,30.7-6.1
		c-0.9,1.4-1.7,3-2.8,4.2c-6.7,6.9-13.2,14.1-20.4,20.5c-3.5,3.2-5.1,6.2-5.2,11c-0.5,50-18.1,93.2-53.6,128.4
		c-32,31.8-71.2,46.9-116.2,48c-32.8,0.9-63.4-6.6-92-22.7c-1.3-0.7-2.5-1.6-3.8-2.4c-0.2-0.1-0.2-0.6-0.4-1.3
		c31.8,2.1,60.5-5.9,86-25.7C224.5,481.1,205.8,468.2,195.5,442.7z"/>
</g>
</svg>
