<?xml version="1.0" encoding="utf-8"?>
<!-- Generator: Adobe Illustrator 19.2.1, SVG Export Plug-In . SVG Version: 6.00 Build 0)  -->
<svg version="1.1" id="Capa_1" xmlns="http://www.w3.org/2000/svg" xmlns:xlink="http://www.w3.org/1999/xlink" x="0px" y="0px"
	 viewBox="0 0 612 792" style="enable-background:new 0 0 612 792;" xml:space="preserve">
<style type="text/css">
	.st0{fill:#FFFFFF;}
</style>
<g>
	<path class="st0" d="M309.1,539.4c-32.1-0.8-61.7-1-91.1-6.2c-14.3-2.5-18-5.6-21-20c-5.2-25-5.7-50.3-3.6-75.6
		c0.8-9.6,2.8-19.1,4.3-28.6c1.7-10.5,8.3-15.9,18.6-17.1c15-1.7,30.1-3.9,45.2-4.8c35-2.2,70-1.8,104.9,1
		c11.6,0.9,23.1,3.1,34.6,4.8c7.6,1.1,12.6,5.7,14,13.1c2.4,13.6,5.1,27.2,5.9,40.9c1.4,22.8,0.3,45.6-4.5,68.1
		c-2.4,11.2-8.9,17-20,18.2c-14.7,1.6-29.4,3.7-44.2,4.7C337,538.9,321.8,539,309.1,539.4z M328.9,503.9c0.6,0.3,1.1,0.4,1.5,0.7
		c5.1,3.8,10.7,5,16.4,2c5.4-2.9,5.9-8.5,5.9-13.9c0.1-7.8,0.1-15.6,0-23.5c-0.1-6.6,0.1-13.4-1-19.9c-1.6-9.6-10.8-13.1-19.1-7.9
		c-1.4,0.9-2.8,1.9-5.1,3.4c0-10.4,0-19.5,0-28.5c-4.4,0-8.3,0-12.3,0c0,30.4,0,60.4,0,91.1C320,505.9,325.3,510.1,328.9,503.9z
		 M398.9,475c0-6.5,0.1-12.3,0-18c-0.2-11.7-6.9-18.5-18.2-18.7c-11.3-0.2-20.1,7.2-20.4,18.1c-0.4,11.5-0.3,23,0,34.4
		c0.2,9.2,5.5,16.2,13.4,17.7c15.7,3,27.3-4.6,24.7-23.1c-4,0-8.1,0-12.3,0c-0.3,2.3-0.6,4.2-0.7,6.2c-0.2,3.7-1.9,6.1-5.8,6.1
		c-4.2,0-5.8-2.7-5.9-6.5c-0.1-4,0-8-0.2-12c-0.2-3.2,0.9-4.4,4.2-4.3C384.5,475.1,391.3,475,398.9,475z M291.3,440.3
		c0,4.1,0,7.8,0,11.6c0,12.3,0,24.6,0,37c0,3.6-4.4,7.6-7.9,7.4c-4.7-0.3-3.6-4-3.7-6.8c-0.1-14.6,0-29.3-0.1-43.9
		c0-1.8-0.1-3.5-0.2-5.1c-4.5,0-8.4,0-12.7,0c0,14.6,0,28.7,0,42.8c0,5.5-0.1,11,0.3,16.5c0.5,6.1,4,9.2,10,8.2
		c3.3-0.5,6.4-2.4,9.5-3.9c1.5-0.7,2.7-1.9,4.3-3.1c0.4,2.4,0.6,4.2,1,6.3c2.1,0,3.9,0,5.7,0c6.7,0,6.7,0,6.7-6.8
		c0-18.1,0-36.3,0-54.4c0-1.9-0.2-3.8-0.3-5.7C299.4,440.3,295.7,440.3,291.3,440.3z M230.4,428.9c0,26.5,0,52.2,0,77.9
		c5,0,9.6,0,14.6,0c0-26.1,0-51.8,0-78.1c5.2,0,10,0,15,0c0-4.4,0-8.3,0-12.4c-15.2,0-30,0-44.7,0c0,4.3,0,8.2,0,12.5
		C220.3,428.9,224.9,428.9,230.4,428.9z"/>
	<path class="st0" d="M324.8,319.8c0,6.7,0.3,13.3-0.1,20c-0.7,12.2-7.5,18.8-20.1,19.8c-11.7,1-20.8-4.9-23.3-15.1
		c-0.5-1.9-0.6-3.9-0.6-5.9c-0.1-12.8-0.1-25.6,0-38.4c0-9.4,4.8-16,13.9-18.2c4.4-1.1,9.3-1.4,13.8-0.7c10,1.5,16.1,9.1,16.4,19.6
		C325,307.2,324.9,313.5,324.8,319.8C324.9,319.8,324.8,319.8,324.8,319.8z M308.9,320.1c0-6.5-0.1-13,0-19.5c0.1-4.2-2.1-6.2-6-6.4
		c-4-0.2-6.2,1.9-6.2,6c0,13.1,0,26.3,0,39.4c0,3.8,1.4,6.5,5.8,6.4c4.3-0.1,6.4-2.2,6.4-6.5C308.9,333,308.9,326.5,308.9,320.1z"/>
	<path class="st0" d="M251.7,297.1c3.2-12.4,6.5-23.6,8.9-34.9c1.1-5.2,3.3-6.9,8.3-6.3c3.3,0.4,6.6,0.1,10.7,0.1
		c-0.6,2.2-0.9,3.8-1.4,5.5c-5.4,16.4-10.9,32.8-16.2,49.2c-1.1,3.4-1.7,7.1-1.8,10.7c-0.2,11.9-0.1,23.9-0.1,36.5
		c-5.2,0-10,0.2-14.8-0.2c-1-0.1-2.4-2.7-2.5-4.2c-0.2-10.5,0-21-0.2-31.5c-0.1-3.1-0.6-6.3-1.5-9.2c-5.5-17.1-11.1-34.1-16.7-51.1
		c-0.6-1.7-1-3.4-1.7-5.7c5.4,0,10.3-0.2,15,0.2c1.2,0.1,2.8,2.1,3.2,3.4c3.1,10.8,6,21.8,9,32.7
		C250.4,293.4,250.9,294.6,251.7,297.1z"/>
	<path class="st0" d="M336.6,283c5.3,0,10,0,15.4,0c0,2.1,0,3.8,0,5.6c0,16.1-0.1,32.3,0.1,48.4c0,3-1.6,7.3,3.6,7.7
		c4,0.3,8.4-4.4,8.4-8.7c0.1-8.3,0-16.6,0-25c0-9.3,0-18.6,0-28.1c5.4,0,10.2,0,15.4,0c0.1,1.7,0.3,3.3,0.3,5
		c0,21.5-0.1,43,0.1,64.4c0,4.4-1.2,6.2-5.6,5.6c-1-0.1-2-0.1-3,0c-4.9,0.7-8.3-0.3-7.3-6.7c-3.7,2.3-6.8,4.6-10.2,6.1
		c-9.9,4.4-17.1,0-17.2-10.8C336.5,325.5,336.6,304.5,336.6,283z"/>
	<path class="st0" d="M327.9,473.5c0-6,0.1-12-0.1-18c-0.1-3.8,1.8-5.5,5.3-5.8c3.7-0.3,6,1.5,6,5.1c0.2,12.8,0.2,25.6-0.1,38.4
		c0,1.6-2.9,4.3-4.6,4.4c-3,0.2-6.4-1-6.5-5.2C327.8,486.2,327.9,479.8,327.9,473.5z"/>
	<path class="st0" d="M373.3,465.8c0.8-6.3-1.9-11.8,3.3-15.2c1.5-1,6.3-0.3,6.6,0.6c1.4,3.9,2.8,8.5,1.7,12.1
		C384.5,465,378.2,464.9,373.3,465.8z"/>
</g>
</svg>
